#tb 0: 1/25
#media_type 0: video
#codec_id 0: rawvideo
#dimensions 0: 1920x1080
#sar 0: 0/1
0,          0,          0,        1,  8294400, 0xa189c341
0,          1,          1,        1,  8294400, 0xefe07f3f
0,          2,          2,        1,  8294400, 0xf11cd41f
0,          3,          3,        1,  8294400, 0x85897411
0,          4,          4,        1,  8294400, 0x2db68eca
0,          5,          5,        1,  8294400, 0xbf826c45
0,          6,          6,        1,  8294400, 0x9960de92
0,          7,          7,        1,  8294400, 0xd8125d06
0,          8,          8,        1,  8294400, 0xb90251df
0,          9,          9,        1,  8294400, 0x5cc8c099
0,         10,         10,        1,  8294400, 0xe5b49131
0,         11,         11,        1,  8294400, 0xa861faac
0,         12,         12,        1,  8294400, 0x1e125ad2
0,         13,         13,        1,  8294400, 0xbceba6d9
0,         14,         14,        1,  8294400, 0x135dab49
0,         15,         15,        1,  8294400, 0xf09f3164
0,         16,         16,        1,  8294400, 0xfda414dd
0,         17,         17,        1,  8294400, 0xbf273db4
0,         18,         18,        1,  8294400, 0x0dea125e
0,         19,         19,        1,  8294400, 0xde6dedb0
0,         20,         20,        1,  8294400, 0x6389ceb6
0,         21,         21,        1,  8294400, 0x8d69e4b8
0,         22,         22,        1,  8294400, 0xf74c0457
0,         23,         23,        1,  8294400, 0x5ecd983e
